<svg xmlns="http://www.w3.org/2000/svg" version="1.1" xmlns:xlink="http://www.w3.org/1999/xlink" xmlns:svgjs="http://svgjs.com/svgjs" width="2556" height="1440" preserveAspectRatio="none" viewBox="0 0 2556 1440">
    <g mask="url(&quot;#SvgjsMask1040&quot;)" fill="none">
        <rect width="2556" height="1440" x="0" y="0" fill="url(#SvgjsLinearGradient1041)"></rect>
        <path d="M906.55 404.31 a285.08 285.08 0 1 0 570.16 0 a285.08 285.08 0 1 0 -570.16 0z" fill="rgba(28, 83, 142, 0.4)" class="triangle-float1"></path>
        <path d="M-338.11 1004.87 a477.7 477.7 0 1 0 955.4 0 a477.7 477.7 0 1 0 -955.4 0z" fill="rgba(28, 83, 142, 0.4)" class="triangle-float1"></path>
        <path d="M1085.0000322283584 1446.518089377916L1436.4472880575868 1633.3859100338614 1271.8678528843036 1095.0708335486877z" fill="rgba(28, 83, 142, 0.4)" class="triangle-float2"></path>
        <path d="M2091.592,1006.471C2179.972,1002.004,2259.08,958.589,2307.005,884.197C2359.832,802.196,2387.743,701.241,2344.582,613.765C2296.736,516.792,2199.724,446.912,2091.592,447.611C1984.478,448.303,1896.37,523.443,1844.203,616.998C1793.534,707.867,1779.058,820.241,1834.842,908.063C1887.513,990.984,1993.482,1011.43,2091.592,1006.471" fill="rgba(28, 83, 142, 0.4)" class="triangle-float3"></path>
        <path d="M697.8624546760077 981.1633702229384L1105.502378116243 1163.1220544228158 1071.4915938273703 774.3770111430653z" fill="rgba(28, 83, 142, 0.4)" class="triangle-float2"></path>
        <path d="M1300.7 484.87 a343.04 343.04 0 1 0 686.08 0 a343.04 343.04 0 1 0 -686.08 0z" fill="rgba(28, 83, 142, 0.4)" class="triangle-float2"></path>
        <path d="M-107.56 1193.31 a387.55 387.55 0 1 0 775.1 0 a387.55 387.55 0 1 0 -775.1 0z" fill="rgba(28, 83, 142, 0.4)" class="triangle-float2"></path>
        <path d="M1622.169,730.388C1705.421,731.323,1798.007,720.835,1840.659,649.333C1884.015,576.649,1855.161,486.353,1810.69,414.345C1768.859,346.612,1701.772,294.59,1622.169,295.55C1543.999,296.493,1481.692,351.829,1441.362,418.799C1399.41,488.462,1371.204,574.182,1412.018,644.518C1452.724,714.668,1541.069,729.477,1622.169,730.388" fill="rgba(28, 83, 142, 0.4)" class="triangle-float3"></path>
        <path d="M1980.983,759.233C2110.604,757.081,2234.696,692.957,2295.666,578.55C2353.565,469.906,2318.794,343.942,2259.922,235.822C2197.586,121.341,2111.295,3.847,1980.983,0.63C1846.831,-2.681,1743.245,104.662,1677.127,221.436C1612.164,336.169,1582.812,474.513,1647.67,589.306C1713.421,705.68,1847.337,761.451,1980.983,759.233" fill="rgba(28, 83, 142, 0.4)" class="triangle-float1"></path>
        <path d="M731.8031001047555 566.6563198349079L895.2749675288766 245.82471547378213 574.4433631677508 82.35284804966102 410.9714957436297 403.1844524107868z" fill="rgba(28, 83, 142, 0.4)" class="triangle-float2"></path>
        <path d="M106.344,886.215C183.988,881.686,240.056,821.468,279.727,754.57C320.474,685.857,353.736,603.857,315.315,533.817C275.849,461.872,188.215,432.947,106.344,438.496C33.461,443.436,-19.905,497.282,-58.72,559.167C-101.048,626.653,-141.908,705.955,-106.014,777.072C-67.579,853.224,21.187,891.183,106.344,886.215" fill="rgba(28, 83, 142, 0.4)" class="triangle-float2"></path>
        <path d="M1236.5158910411728 162.92016847199062L1391.843914641148 369.04741784287063 1597.971164012028 213.7193942428954 1442.6431404120528 7.592144872015382z" fill="rgba(28, 83, 142, 0.4)" class="triangle-float1"></path>
        <path d="M598.1271502829059 1517.4251797995482L813.6082717289121 1443.2290795430645 523.9310500264221 1301.944058353542z" fill="rgba(28, 83, 142, 0.4)" class="triangle-float1"></path>
        <path d="M2264.7730416686577 1243.752034252527L2645.0572476472307 1230.4722171541966 2631.7774305489 850.1880111756236 2251.4932245703276 863.467828273954z" fill="rgba(28, 83, 142, 0.4)" class="triangle-float3"></path>
        <path d="M1679.6641854862023 1177.7880045086818L1875.216977149129 1341.876279868731 2039.3052525091782 1146.3234882058043 1843.7524608462516 982.2352128457551z" fill="rgba(28, 83, 142, 0.4)" class="triangle-float3"></path>
        <path d="M2362.76434034475 707.7912085397663L2140.2639393834866 863.5876665475262 2518.5607983525097 930.29160950103z" fill="rgba(28, 83, 142, 0.4)" class="triangle-float2"></path>
        <path d="M1323.883,1176.026C1399.235,1177.418,1477.411,1150.382,1513.921,1084.451C1549.572,1020.07,1526.784,942.512,1487.735,880.133C1451.419,822.12,1392.323,781.335,1323.883,780.875C1254.662,780.409,1191.813,818.563,1156.17,877.904C1119.375,939.164,1110.591,1015.366,1145.629,1077.648C1181.293,1141.044,1251.156,1174.683,1323.883,1176.026" fill="rgba(28, 83, 142, 0.4)" class="triangle-float2"></path>
        <path d="M1682.9004417531905 1042.9908762540852L1861.0807716307202 1021.113082688538 1739.1739163436346 764.781484655017z" fill="rgba(28, 83, 142, 0.4)" class="triangle-float3"></path>
        <path d="M919.376,1154.286C967.039,1153.567,1003.463,1115.78,1025.62,1073.575C1046.067,1034.628,1046.624,989.509,1026.386,950.453C1004.235,907.705,967.451,871.145,919.376,868.538C867.107,865.703,814.956,891.532,790.179,937.643C766.455,981.793,781.76,1033.819,807.431,1076.866C832.337,1118.63,870.755,1155.019,919.376,1154.286" fill="rgba(28, 83, 142, 0.4)" class="triangle-float2"></path>
        <path d="M1007.776,1812.715C1131.173,1816.052,1228.148,1715.101,1283.839,1604.935C1333.97,1505.767,1327.621,1389.164,1269.886,1294.221C1214.438,1203.039,1114.368,1156.113,1007.776,1150.959C889.703,1145.249,756.413,1163.928,697.747,1266.554C639.346,1368.717,698.322,1488.334,756.415,1590.673C815.567,1694.878,887.997,1809.476,1007.776,1812.715" fill="rgba(28, 83, 142, 0.4)" class="triangle-float3"></path>
    </g>
    <defs>
        <mask id="SvgjsMask1040">
            <rect width="2556" height="1440" fill="#ffffff"></rect>
        </mask>
        <linearGradient x1="10.92%" y1="-19.37%" x2="89.08%" y2="119.38%" gradientUnits="userSpaceOnUse" id="SvgjsLinearGradient1041">
            <stop stop-color="#0e2a47" offset="0"></stop>
            <stop stop-color="#00459e" offset="1"></stop>
        </linearGradient>
        <style>
            @keyframes float1 {
                0%{transform: translate(0, 0)}
                50%{transform: translate(-10px, 0)}
                100%{transform: translate(0, 0)}
            }

            .triangle-float1 {
                animation: float1 5s infinite;
            }

            @keyframes float2 {
                0%{transform: translate(0, 0)}
                50%{transform: translate(-5px, -5px)}
                100%{transform: translate(0, 0)}
            }

            .triangle-float2 {
                animation: float2 4s infinite;
            }

            @keyframes float3 {
                0%{transform: translate(0, 0)}
                50%{transform: translate(0, -10px)}
                100%{transform: translate(0, 0)}
            }

            .triangle-float3 {
                animation: float3 6s infinite;
            }
        </style>
    </defs>
</svg>